<?xml version="1.0" encoding="UTF-8"?>
<!DOCTYPE svg PUBLIC "-//W3C//DTD SVG 1.1//EN" "http://www.w3.org/Graphics/SVG/1.1/DTD/svg11.dtd">
<svg version="1.1" xmlns="http://www.w3.org/2000/svg" xmlns:xlink="http://www.w3.org/1999/xlink" x="0" y="0" width="221" height="50" viewBox="0, 0, 221, 50">
  <defs>
    <clipPath id="Clip_1">
      <path d="M14.911,0 L42.497,49.271 L41.171,50 L13.585,0.729 L14.911,0 z M15.878,9.978 L32.437,41.656 L30.502,41.604 L15.911,13.696 L2.728,40.139 L6.873,40.139 L11.665,30.09 L16.769,30.156 L16.751,31.842 L12.731,31.785 L7.945,41.824 L0,41.824 L15.878,9.978 z M55.172,8.776 L40.776,40.322 L23.949,9.387 L25.865,9.36 L40.736,36.693 L52.386,10.481 L48.319,10.52 L42.99,23.211 L41.034,23.211 L47.246,8.849 L55.172,8.776 z M16.37,21.119 L16.877,22.013 L18.241,24.418 L20.094,27.68 L12.646,27.68 L13.134,26.82 L14.498,24.418 L16.37,21.119 z M16.37,23.473 L15.513,24.984 L14.637,26.526 L18.103,26.526 L17.227,24.984 L16.37,23.473 z"/>
    </clipPath>
    <clipPath id="Clip_2">
      <path d="M217.594,30 C219.19,30 219.987,30.834 219.987,32.503 L219.987,33.326 L219.201,33.326 L219.201,32.434 C219.201,31.84 219.072,31.406 218.816,31.131 C218.559,30.857 218.141,30.72 217.562,30.72 L214.825,30.72 C214.256,30.72 213.841,30.857 213.579,31.131 C213.317,31.406 213.186,31.84 213.186,32.434 L213.186,33.394 C213.186,33.874 213.284,34.231 213.481,34.466 C213.677,34.7 214.038,34.886 214.562,35.023 L217.971,35.914 C218.736,36.12 219.288,36.389 219.627,36.72 C219.966,37.051 220.135,37.571 220.135,38.28 L220.135,39.497 C220.135,41.166 219.337,42 217.742,42 L214.743,42 C213.147,42 212.35,41.166 212.35,39.497 L212.35,38.486 L213.136,38.486 L213.136,39.566 C213.136,40.16 213.267,40.594 213.53,40.869 C213.792,41.143 214.207,41.28 214.775,41.28 L217.709,41.28 C218.277,41.28 218.693,41.143 218.955,40.869 C219.217,40.594 219.348,40.16 219.348,39.566 L219.348,38.331 C219.348,37.851 219.25,37.494 219.053,37.26 C218.856,37.026 218.496,36.84 217.971,36.703 L214.562,35.811 C213.797,35.606 213.246,35.337 212.907,35.006 C212.568,34.674 212.399,34.154 212.399,33.446 L212.399,32.503 C212.399,30.834 213.196,30 214.792,30 L217.594,30 z M202.834,30 L202.834,30.754 L195.91,30.754 L195.91,35.468 L201.812,35.468 L201.812,36.223 L195.91,36.223 L195.91,41.246 L202.834,41.246 L202.834,42 L195.049,42 L195.049,30 L202.834,30 z M181.709,30 C183.424,30 184.281,30.834 184.281,32.503 L184.281,34.406 C184.281,36.063 183.447,36.897 181.779,36.909 L184.669,42 L183.735,42 L180.828,36.909 L176.864,36.909 L176.864,42 L176.018,42 L176.018,30 L181.709,30 z M181.315,30.857 L176.883,30.857 L176.883,36 L181.315,36 C181.878,36 182.289,35.869 182.549,35.608 C182.809,35.347 182.939,34.933 182.939,34.367 L182.939,32.49 C182.939,31.924 182.809,31.51 182.549,31.249 C182.289,30.988 181.878,30.857 181.315,30.857 z M156.906,30 L156.906,39.531 C156.906,40.126 157.037,40.56 157.298,40.834 C157.559,41.109 157.972,41.246 158.538,41.246 L161.492,41.246 C162.058,41.246 162.472,41.109 162.733,40.834 C162.994,40.56 163.125,40.126 163.125,39.531 L163.125,30 L163.908,30 L163.908,39.497 C163.908,41.166 163.114,42 161.525,42 L158.506,42 C156.917,42 156.123,41.166 156.123,39.497 L156.123,30 L156.906,30 z M145.742,30 L145.742,30.754 L141.836,30.754 L141.836,42 L140.999,42 L140.999,30.754 L137.092,30.754 L137.092,30 L145.742,30 z M118.938,30 L125.921,40.68 L125.921,30 L126.712,30 L126.712,42 L125.903,42 L118.852,31.234 L118.852,42 L118.061,42 L118.061,30 L118.938,30 z M107.681,30 L107.681,30.754 L100.757,30.754 L100.757,35.468 L106.658,35.468 L106.658,36.223 L100.757,36.223 L100.757,41.246 L107.681,41.246 L107.681,42 L99.896,42 L99.896,30 L107.681,30 z M80.917,30 L84.758,41.074 L88.65,30 L89.515,30 L85.242,42 L84.273,42 L80,30 L80.917,30 z M212.375,12 L212.375,16.868 L216.706,12 L220.838,12 L216.077,17.16 L221,24 L216.813,24 L213.651,19.543 L212.375,20.897 L212.375,24 L208.89,24 L208.89,12 L212.375,12 z M193.909,12 C194.852,12 195.649,12.114 196.301,12.343 C196.953,12.571 197.482,12.891 197.89,13.303 C198.612,13.989 198.973,14.92 198.973,16.097 L198.973,16.131 C198.973,17.057 198.746,17.823 198.292,18.429 C197.838,19.034 197.226,19.497 196.458,19.817 L199.374,24 L195.463,24 L193.001,20.366 L191.516,20.366 L191.516,24 L188.129,24 L188.129,12 L193.909,12 z M193.957,14.571 L191.589,14.571 L191.589,17.143 L193.975,17.143 C194.597,17.143 195.075,17.028 195.411,16.798 C195.746,16.569 195.914,16.26 195.914,15.872 L195.914,15.842 C195.914,15.413 195.74,15.094 195.392,14.885 C195.044,14.676 194.566,14.571 193.957,14.571 z M174.211,12 L179.478,24 L175.802,24 L174.9,21.872 L170.128,21.872 L169.244,24 L165.638,24 L170.906,12 L174.211,12 z M172.134,16.286 L170.828,19.714 L173.423,19.714 L172.134,16.286 z M146.722,12 L149.635,16.646 L152.547,12 L156.123,12 L156.123,24 L152.757,24 L152.757,17.108 L149.635,21.806 L149.565,21.806 L146.461,17.143 L146.461,24 L143.147,24 L143.147,12 L146.722,12 z M132.767,12 L132.767,14.914 L129.217,14.914 L129.217,24 L125.937,24 L125.937,14.914 L122.386,14.914 L122.386,12 L132.767,12 z M107.684,12 L107.684,21.086 L113.736,21.086 L113.736,24 L104.221,24 L104.221,12 L107.684,12 z M89.438,12 L94.705,24 L91.029,24 L90.127,21.872 L85.355,21.872 L84.471,24 L80.865,24 L86.132,12 L89.438,12 z M87.361,16.286 L86.055,19.714 L88.65,19.714 L87.361,16.286 z"/>
    </clipPath>
  </defs>
  <g id="Layer_1">
    <g clip-path="url(#Clip_1)">
      <path d="M-5,55 L60.172,55 L60.172,-5 L-5,-5 z" fill="#FFFFFF"/>
    </g>
    <g clip-path="url(#Clip_2)">
      <path d="M75,47 L226,47 L226,7 L75,7 z" fill="#FFFFFF"/>
    </g>
  </g>
</svg>
