<?xml version="1.0" encoding="UTF-8"?>
<!DOCTYPE svg PUBLIC "-//W3C//DTD SVG 1.1//EN" "http://www.w3.org/Graphics/SVG/1.1/DTD/svg11.dtd">
<svg version="1.1" xmlns="http://www.w3.org/2000/svg" xmlns:xlink="http://www.w3.org/1999/xlink" x="0" y="0" width="216" height="222" viewBox="0, 0, 216, 222">
  <defs>
    <clipPath id="Clip_1">
      <path d="M67.189,0 L156.098,159.639 L151.826,162 L62.917,2.361 L67.189,0 z M62.161,23.02 L126.989,147.693 L119.416,147.492 L62.292,37.651 L10.678,141.722 L26.908,141.722 L45.669,102.174 L65.651,102.435 L65.58,109.07 L49.841,108.844 L31.104,148.357 L0,148.357 L62.161,23.02 z M216,18.29 L159.637,142.445 L93.758,20.692 L101.261,20.586 L159.482,128.162 L205.092,24.999 L189.17,25.153 L168.306,75.101 L160.649,75.101 L184.966,18.574 L216,18.29 z M64.088,66.866 L66.074,70.386 L71.414,79.851 L78.667,92.688 L49.509,92.688 L51.421,89.304 L56.761,79.852 L64.088,66.866 z M64.088,76.132 L60.733,82.078 L57.304,88.148 L70.872,88.148 L67.442,82.077 L64.088,76.132 z"/>
    </clipPath>
    <clipPath id="Clip_2">
      <path d="M184.293,206.677 C186.247,206.677 187.224,207.743 187.224,209.873 L187.224,210.924 L186.26,210.924 L186.26,209.786 C186.26,209.027 186.103,208.472 185.789,208.122 C185.474,207.772 184.962,207.597 184.253,207.597 L180.902,207.597 C180.206,207.597 179.697,207.772 179.376,208.122 C179.055,208.472 178.895,209.027 178.895,209.786 L178.895,211.011 C178.895,211.624 179.015,212.081 179.256,212.38 C179.497,212.679 179.938,212.916 180.581,213.091 L184.755,214.229 C185.692,214.492 186.367,214.835 186.782,215.258 C187.197,215.681 187.404,216.345 187.404,217.25 L187.404,218.804 C187.404,220.935 186.428,222 184.474,222 L180.801,222 C178.848,222 177.871,220.935 177.871,218.804 L177.871,217.513 L178.834,217.513 L178.834,218.892 C178.834,219.65 178.995,220.205 179.316,220.555 C179.637,220.906 180.146,221.081 180.841,221.081 L184.434,221.081 C185.13,221.081 185.638,220.906 185.959,220.555 C186.28,220.205 186.441,219.65 186.441,218.892 L186.441,217.316 C186.441,216.703 186.32,216.247 186.08,215.948 C185.839,215.648 185.397,215.411 184.755,215.236 L180.581,214.098 C179.644,213.835 178.968,213.492 178.553,213.069 C178.139,212.646 177.931,211.982 177.931,211.077 L177.931,209.873 C177.931,207.743 178.908,206.677 180.861,206.677 L184.293,206.677 z M165.359,206.677 L165.359,207.641 L157.41,207.641 L157.41,213.66 L164.185,213.66 L164.185,214.623 L157.41,214.623 L157.41,221.037 L165.359,221.037 L165.359,222 L156.422,222 L156.422,206.677 L165.359,206.677 z M139.848,206.677 C141.856,206.677 142.86,207.743 142.86,209.873 L142.86,212.303 C142.86,214.419 141.883,215.484 139.93,215.499 L143.314,222 L142.22,222 L138.816,215.499 L134.175,215.499 L134.175,222 L133.185,222 L133.185,206.677 L139.848,206.677 z M139.45,207.903 L133.781,207.903 L133.781,214.645 L139.45,214.645 C140.169,214.645 140.695,214.474 141.028,214.132 C141.36,213.789 141.526,213.247 141.526,212.505 L141.526,210.044 C141.526,209.301 141.36,208.759 141.028,208.417 C140.695,208.074 140.169,207.903 139.45,207.903 z M110.371,206.677 L110.371,218.848 C110.371,219.607 110.541,220.161 110.881,220.512 C111.221,220.862 111.758,221.037 112.495,221.037 L116.338,221.037 C117.074,221.037 117.612,220.862 117.952,220.512 C118.292,220.161 118.462,219.607 118.462,218.848 L118.462,206.677 L119.481,206.677 L119.481,218.804 C119.481,220.935 118.447,222 116.381,222 L112.452,222 C110.385,222 109.352,220.935 109.352,218.804 L109.352,206.677 L110.371,206.677 z M96.84,206.677 L96.84,207.641 L92.265,207.641 L92.265,222 L91.285,222 L91.285,207.641 L86.711,207.641 L86.711,206.677 L96.84,206.677 z M64.501,206.677 L72.676,220.314 L72.676,206.677 L73.603,206.677 L73.603,222 L72.656,222 L64.4,208.253 L64.4,222 L63.474,222 L63.474,206.677 L64.501,206.677 z M49.77,206.677 L49.77,207.641 L41.821,207.641 L41.821,213.66 L48.596,213.66 L48.596,214.623 L41.821,214.623 L41.821,221.037 L49.77,221.037 L49.77,222 L40.833,222 L40.833,206.677 L49.77,206.677 z M18.091,206.677 L22.66,220.818 L27.291,206.677 L28.321,206.677 L23.237,222 L22.084,222 L17,206.677 L18.091,206.677 z M177.816,184 L177.816,190.217 L182.929,184 L187.809,184 L182.187,190.589 L188,199.322 L183.057,199.322 L179.323,193.631 L177.816,195.361 L177.816,199.322 L173.7,199.322 L173.7,184 L177.816,184 z M155.719,184 C156.868,184 157.84,184.146 158.635,184.438 C159.429,184.73 160.074,185.138 160.571,185.664 C161.451,186.539 161.89,187.729 161.89,189.232 L161.89,189.275 C161.89,190.457 161.614,191.435 161.061,192.208 C160.507,192.982 159.762,193.573 158.826,193.982 L162.38,199.322 L157.613,199.322 L154.613,194.682 L152.804,194.682 L152.804,199.322 L148.676,199.322 L148.676,184 L155.719,184 z M155.456,187.677 L152.847,187.677 L152.847,191.355 L155.477,191.355 C156.161,191.355 156.689,191.191 157.059,190.862 C157.428,190.534 157.613,190.093 157.613,189.538 L157.613,189.494 C157.613,188.881 157.421,188.425 157.038,188.126 C156.654,187.827 156.127,187.677 155.456,187.677 z M130.41,184 L136.76,199.322 L132.328,199.322 L131.241,196.606 L125.489,196.606 L124.423,199.322 L120.077,199.322 L126.426,184 L130.41,184 z M129.025,188.903 L127.227,193.193 L130.801,193.193 L129.025,188.903 z M97.533,184 L101.01,189.932 L104.488,184 L108.756,184 L108.756,199.322 L104.738,199.322 L104.738,190.523 L101.01,196.521 L100.927,196.521 L97.221,190.567 L97.221,199.322 L93.265,199.322 L93.265,184 L97.533,184 z M81.348,184 L81.348,187.721 L76.865,187.721 L76.865,199.322 L72.724,199.322 L72.724,187.721 L68.24,187.721 L68.24,184 L81.348,184 z M50.316,184 L50.316,195.601 L57.516,195.601 L57.516,199.322 L46.195,199.322 L46.195,184 L50.316,184 z M27.929,184 L34.279,199.322 L29.847,199.322 L28.76,196.606 L23.008,196.606 L21.942,199.322 L17.596,199.322 L23.945,184 L27.929,184 z M25.949,188.903 L24.15,193.193 L27.725,193.193 L25.949,188.903 z"/>
    </clipPath>
  </defs>
  <g id="Layer_1">
    <g clip-path="url(#Clip_1)">
      <path d="M-5,167 L221,167 L221,-5 L-5,-5 z" fill="#FFFFFF"/>
    </g>
    <g clip-path="url(#Clip_2)">
      <path d="M12,227 L193,227 L193,179 L12,179 z" fill="#FFFFFF"/>
    </g>
  </g>
</svg>
