<?xml version="1.0" encoding="UTF-8"?>
<!DOCTYPE svg PUBLIC "-//W3C//DTD SVG 1.1//EN" "http://www.w3.org/Graphics/SVG/1.1/DTD/svg11.dtd">
<svg version="1.1" xmlns="http://www.w3.org/2000/svg" xmlns:xlink="http://www.w3.org/1999/xlink" x="0" y="0" width="474.552" height="397" viewBox="0, 0, 474.552, 397">
  <defs>
    <clipPath id="Clip_1">
      <path d="M331.844,-0 C345.619,0 356.827,11.208 356.827,24.983 C356.827,38.758 345.619,49.966 331.844,49.966 C318.068,49.966 306.861,38.758 306.861,24.983 C306.861,11.208 318.068,0 331.844,-0 z M331.844,2.172 C319.265,2.172 309.033,12.405 309.033,24.983 C309.033,37.561 319.265,47.794 331.844,47.794 C344.422,47.794 354.654,37.561 354.654,24.983 C354.654,12.405 344.422,2.172 331.844,2.172 z"/>
    </clipPath>
    <clipPath id="Clip_2">
      <path d="M331.844,4.345 C343.223,4.345 352.482,13.604 352.482,24.983 C352.482,36.362 343.223,45.621 331.844,45.621 C320.464,45.621 311.205,36.362 311.205,24.983 C311.205,13.604 320.464,4.345 331.844,4.345 z M331.844,6.517 C321.661,6.517 313.378,14.801 313.378,24.983 C313.378,35.165 321.661,43.449 331.844,43.449 C342.026,43.449 350.309,35.165 350.309,24.983 C350.309,14.801 342.026,6.517 331.844,6.517 z"/>
    </clipPath>
    <clipPath id="Clip_3">
      <path d="M331.843,22.811 C333.04,22.811 334.016,23.786 334.016,24.983 C334.016,26.18 333.04,27.155 331.843,27.155 C330.646,27.155 329.671,26.18 329.671,24.983 C329.671,23.786 330.646,22.811 331.843,22.811 z"/>
    </clipPath>
    <clipPath id="Clip_4">
      <path d="M342.593,13.041 C343.318,13.181 343.043,13.036 343.473,13.354 C343.788,13.669 343.879,14.143 343.703,14.549 L337.186,29.756 C337.077,30.012 336.87,30.217 336.614,30.327 L321.407,36.845 C321.27,36.903 321.125,36.932 320.981,36.932 C320.699,36.932 320.421,36.821 320.212,36.614 C319.897,36.299 319.806,35.826 319.982,35.42 L326.499,20.213 C326.608,19.956 326.814,19.752 327.071,19.641 L342.278,13.124 L342.593,13.041 z M340.638,16.189 L328.326,21.466 L323.049,33.777 L335.361,28.5 L340.638,16.189 z"/>
    </clipPath>
    <clipPath id="Clip_5">
      <path d="M155.218,2 C157.64,2 159.611,3.971 159.61,6.395 C159.611,8.304 158.386,9.932 156.682,10.537 L156.682,20.64 L168.723,40.909 C170.097,43.202 170.132,45.958 168.815,48.284 C167.498,50.611 165.117,52 162.444,52 L136.277,52 C133.604,52 131.223,50.611 129.906,48.284 C128.589,45.958 128.624,43.2 129.999,40.908 L142.039,20.64 L142.039,10.537 C140.335,9.932 139.111,8.304 139.11,6.395 C139.111,3.971 141.081,2 143.503,2 L155.218,2 z M142.039,31.492 C140.914,31.492 139.731,31.766 138.517,32.304 L132.513,42.41 C131.685,43.79 131.664,45.445 132.454,46.841 C133.244,48.237 134.673,49.07 136.277,49.07 L162.444,49.07 C164.048,49.07 165.477,48.237 166.267,46.841 C167.057,45.445 167.036,43.79 166.211,42.415 C166.21,42.413 166.209,42.411 166.208,42.41 L162.308,35.845 C160.805,36.64 158.854,37.352 156.682,37.352 C152.132,37.352 148.536,34.184 148.385,34.049 C148.359,34.027 145.453,31.492 142.039,31.492 z M153.753,10.789 L144.968,10.789 L144.968,21.043 C144.968,21.306 144.897,21.565 144.762,21.791 L140.685,28.654 C141.14,28.594 141.591,28.563 142.039,28.563 C146.571,28.563 150.155,31.703 150.333,31.862 C150.333,31.862 150.333,31.862 150.333,31.862 C150.362,31.888 153.268,34.422 156.682,34.422 C158.252,34.422 159.719,33.876 160.808,33.32 L154.385,22.508 L152.289,22.508 C151.48,22.508 150.825,21.852 150.825,21.043 C150.825,20.234 151.48,19.578 152.289,19.578 L153.753,19.578 L153.753,16.648 L152.289,16.648 C151.48,16.648 150.825,15.993 150.825,15.184 C150.825,14.375 151.48,13.719 152.289,13.719 L153.753,13.719 L153.753,10.789 z M155.218,4.93 L143.503,4.93 C142.696,4.93 142.039,5.587 142.039,6.395 C142.039,7.202 142.696,7.859 143.503,7.859 L155.218,7.859 C156.025,7.859 156.682,7.202 156.682,6.395 C156.682,5.587 156.025,4.93 155.218,4.93 z"/>
    </clipPath>
    <clipPath id="Clip_6">
      <path d="M140.563,37.352 C141.372,37.352 142.027,38.007 142.027,38.816 C142.027,39.625 141.372,40.281 140.563,40.281 C139.754,40.281 139.099,39.625 139.099,38.816 C139.099,38.007 139.754,37.352 140.563,37.352 z"/>
    </clipPath>
    <clipPath id="Clip_7">
      <path d="M158.135,40.281 C158.943,40.281 159.599,40.937 159.599,41.746 C159.599,42.555 158.943,43.211 158.135,43.211 C157.326,43.211 156.67,42.555 156.67,41.746 C156.67,40.937 157.326,40.281 158.135,40.281 z"/>
    </clipPath>
    <clipPath id="Clip_8">
      <path d="M149.349,43.211 C150.158,43.211 150.813,43.867 150.813,44.676 C150.813,45.485 150.158,46.141 149.349,46.141 C148.54,46.141 147.885,45.485 147.884,44.676 C147.885,43.867 148.54,43.211 149.349,43.211 z"/>
    </clipPath>
    <clipPath id="Clip_9">
      <path d="M93.36,21.5 L105.36,28 L93.36,34.5 L93.36,21.5 z"/>
    </clipPath>
    <clipPath id="Clip_10">
      <path d="M449.861,114 L443.361,126 L436.861,114 L449.861,114 z"/>
    </clipPath>
    <clipPath id="Clip_11">
      <path d="M315.361,364.5 L315.361,377.5 L303.361,371 L315.361,364.5 z"/>
    </clipPath>
    <clipPath id="Clip_12">
      <path d="M27.36,260 L33.86,272 L20.86,272 L27.36,260 z"/>
    </clipPath>
    <clipPath id="Clip_13">
      <path d="M276.361,21.5 L288.361,28 L276.361,34.5 L276.361,21.5 z"/>
    </clipPath>
    <clipPath id="Clip_14">
      <path d="M32.379,174.155 C36.999,174.995 40.752,178.471 44.207,181.439 L30.948,189.179 C28.836,180.609 28.836,175.707 30.948,174.474 C31.68,174.146 31.218,174.304 32.379,174.155 z"/>
    </clipPath>
    <clipPath id="Clip_15">
      <path d="M31.034,159 L31.034,175.438 L17.86,181.352 L31.034,159 z"/>
    </clipPath>
    <clipPath id="Clip_16">
      <path d="M30.948,159 L44.121,181.352 L30.948,175.438 L30.948,159 z"/>
    </clipPath>
    <clipPath id="Clip_17">
      <path d="M44.121,184.918 L30.948,207.269 L30.948,190.831 L44.121,184.918 z"/>
    </clipPath>
    <clipPath id="Clip_18">
      <path d="M17.86,184.918 L31.034,190.831 L31.034,207.269 L17.86,184.918 z"/>
    </clipPath>
    <clipPath id="Clip_19">
      <path d="M31.265,174.474 L31.034,189.267 L17.86,181.244 L31.265,174.474 z"/>
    </clipPath>
    <clipPath id="Clip_20">
      <path d="M456.748,158 C457.396,158 457.922,158.526 457.922,159.174 L457.922,164.943 L462.744,164.943 C463.392,164.943 463.918,165.468 463.918,166.116 L463.918,170.939 L469.687,170.939 C470.335,170.939 470.861,171.464 470.861,172.112 C470.861,172.761 470.335,173.286 469.687,173.286 L463.918,173.286 L463.918,176.383 L469.687,176.383 C470.335,176.383 470.861,176.908 470.861,177.556 C470.861,178.205 470.335,178.73 469.687,178.73 L463.918,178.73 L463.918,181.826 L469.687,181.826 C470.335,181.826 470.861,182.352 470.861,183 C470.861,183.648 470.335,184.174 469.687,184.174 L463.918,184.174 L463.918,187.27 L469.687,187.27 C470.335,187.27 470.861,187.796 470.861,188.444 C470.861,189.092 470.335,189.618 469.687,189.618 L463.918,189.618 L463.918,192.714 L469.687,192.714 C470.335,192.714 470.861,193.239 470.861,193.888 C470.861,194.536 470.335,195.061 469.687,195.061 L463.918,195.061 L463.918,199.884 C463.918,200.532 463.392,201.057 462.744,201.057 L457.922,201.057 L457.922,206.826 C457.922,207.475 457.396,208 456.748,208 C456.1,208 455.574,207.475 455.574,206.826 L455.574,201.057 L452.478,201.057 L452.478,206.826 C452.478,207.475 451.952,208 451.304,208 C450.656,208 450.131,207.475 450.131,206.826 L450.131,201.057 L447.034,201.057 L447.034,206.826 C447.034,207.475 446.509,208 445.861,208 C445.212,208 444.687,207.475 444.687,206.826 L444.687,201.057 L441.59,201.057 L441.59,206.826 C441.59,207.475 441.065,208 440.417,208 C439.769,208 439.243,207.475 439.243,206.826 L439.243,201.057 L436.147,201.057 L436.147,206.826 C436.147,207.475 435.621,208 434.973,208 C434.325,208 433.799,207.475 433.799,206.826 L433.799,201.057 L428.977,201.057 C428.329,201.057 427.803,200.532 427.803,199.884 L427.803,195.061 L422.034,195.061 C421.386,195.061 420.861,194.536 420.861,193.888 C420.861,193.239 421.386,192.714 422.034,192.714 L427.803,192.714 L427.803,189.618 L422.034,189.618 C421.386,189.618 420.861,189.092 420.861,188.444 C420.861,187.796 421.386,187.27 422.034,187.27 L427.803,187.27 L427.803,184.174 L422.034,184.174 C421.386,184.174 420.861,183.648 420.861,183 C420.861,182.352 421.386,181.826 422.034,181.826 L427.803,181.826 L427.803,178.73 L422.034,178.73 C421.386,178.73 420.861,178.205 420.861,177.556 C420.861,176.908 421.386,176.383 422.034,176.383 L427.803,176.383 L427.803,173.286 L422.034,173.286 C421.386,173.286 420.861,172.761 420.861,172.112 C420.861,171.464 421.386,170.939 422.034,170.939 L427.803,170.939 L427.803,166.116 C427.803,165.468 428.329,164.943 428.977,164.943 L433.799,164.943 L433.799,159.174 C433.799,158.526 434.325,158 434.973,158 C435.621,158 436.147,158.526 436.147,159.174 L436.147,164.943 L439.243,164.943 L439.243,159.174 C439.243,158.526 439.769,158 440.417,158 C441.065,158 441.59,158.526 441.59,159.174 L441.59,164.943 L444.687,164.943 L444.687,159.174 C444.687,158.526 445.212,158 445.861,158 C446.509,158 447.034,158.526 447.034,159.174 L447.034,164.943 L450.131,164.943 L450.131,159.174 C450.131,158.526 450.656,158 451.304,158 C451.952,158 452.478,158.526 452.478,159.174 L452.478,164.943 L455.574,164.943 L455.574,159.174 C455.574,158.526 456.1,158 456.748,158 z M433.799,167.29 L430.151,167.29 L430.151,170.939 L431.186,170.939 C431.834,170.939 432.36,171.464 432.36,172.112 C432.36,172.761 431.834,173.286 431.186,173.286 L430.151,173.286 L430.151,176.383 L431.186,176.383 C431.834,176.383 432.36,176.908 432.36,177.556 C432.36,178.205 431.834,178.73 431.186,178.73 L430.151,178.73 L430.151,181.826 L431.186,181.826 C431.834,181.826 432.36,182.352 432.36,183 C432.36,183.648 431.834,184.174 431.186,184.174 L430.151,184.174 L430.151,187.27 L431.186,187.27 C431.834,187.27 432.36,187.796 432.36,188.444 C432.36,189.092 431.834,189.618 431.186,189.618 L430.151,189.618 L430.151,192.714 L431.186,192.714 C431.834,192.714 432.36,193.239 432.36,193.888 C432.36,194.536 431.834,195.061 431.186,195.061 L430.151,195.061 L430.151,198.71 L433.799,198.71 L433.799,197.675 C433.799,197.026 434.325,196.501 434.973,196.501 C435.621,196.501 436.147,197.026 436.147,197.675 L436.147,198.71 L439.243,198.71 L439.243,197.675 C439.243,197.026 439.769,196.501 440.417,196.501 C441.065,196.501 441.59,197.026 441.59,197.675 L441.59,198.71 L444.687,198.71 L444.687,197.675 C444.687,197.026 445.212,196.501 445.861,196.501 C446.509,196.501 447.034,197.026 447.034,197.675 L447.034,198.71 L450.131,198.71 L450.131,197.675 C450.131,197.026 450.656,196.501 451.304,196.501 C451.952,196.501 452.478,197.026 452.478,197.675 L452.478,198.71 L455.574,198.71 L455.574,197.675 C455.574,197.026 456.1,196.501 456.748,196.501 C457.396,196.501 457.922,197.026 457.922,197.675 L457.922,198.71 L461.57,198.71 L461.57,195.061 L460.535,195.061 C459.887,195.061 459.361,194.536 459.361,193.888 C459.361,193.239 459.887,192.714 460.535,192.714 L461.57,192.714 L461.57,189.618 L460.535,189.618 C459.887,189.618 459.361,189.092 459.361,188.444 C459.361,187.796 459.887,187.27 460.535,187.27 L461.57,187.27 L461.57,184.174 L460.535,184.174 C459.887,184.174 459.361,183.648 459.361,183 C459.361,182.352 459.887,181.826 460.535,181.826 L461.57,181.826 L461.57,178.73 L460.535,178.73 C459.887,178.73 459.361,178.205 459.361,177.556 C459.361,176.908 459.887,176.383 460.535,176.383 L461.57,176.383 L461.57,173.286 L460.535,173.286 C459.887,173.286 459.361,172.761 459.361,172.112 C459.361,171.464 459.887,170.939 460.535,170.939 L461.57,170.939 L461.57,167.29 L457.922,167.29 L457.922,168.326 C457.922,168.974 457.396,169.499 456.748,169.499 C456.1,169.499 455.574,168.974 455.574,168.326 L455.574,167.29 L452.478,167.29 L452.478,168.326 C452.478,168.974 451.952,169.499 451.304,169.499 C450.656,169.499 450.131,168.974 450.131,168.326 L450.131,167.29 L447.034,167.29 L447.034,168.326 C447.034,168.974 446.509,169.499 445.861,169.499 C445.212,169.499 444.687,168.974 444.687,168.326 L444.687,167.29 L441.59,167.29 L441.59,168.326 C441.59,168.974 441.065,169.499 440.417,169.499 C439.769,169.499 439.243,168.974 439.243,168.326 L439.243,167.29 L436.147,167.29 L436.147,168.326 C436.147,168.974 435.621,169.499 434.973,169.499 C434.325,169.499 433.799,168.974 433.799,168.326 L433.799,167.29 z"/>
    </clipPath>
    <clipPath id="Clip_21">
      <path d="M452.696,175.925 C453.35,175.925 453.879,176.454 453.879,177.108 L453.879,189.836 C453.879,190.489 453.35,191.019 452.696,191.019 L439.968,191.019 C439.315,191.019 438.785,190.489 438.785,189.836 L438.785,177.108 C438.785,176.454 439.315,175.925 439.968,175.925 L452.696,175.925 z M451.513,178.291 L441.152,178.291 L441.152,188.652 L451.513,188.652 L451.513,178.291 z"/>
    </clipPath>
    <clipPath id="Clip_22">
      <path d="M213.894,126 L268.193,224.814 L265.584,226.276 L211.286,127.462 L213.894,126 z M210.824,140.249 L250.416,217.42 L245.791,217.295 L210.903,149.306 L179.382,213.724 L189.294,213.724 L200.752,189.245 L212.955,189.406 L212.912,193.513 L203.299,193.373 L191.856,217.831 L172.86,217.831 L210.824,140.249 z M304.777,137.321 L270.354,214.171 L230.121,138.808 L234.703,138.742 L270.26,205.33 L298.115,141.474 L288.391,141.57 L275.649,172.487 L270.973,172.487 L285.824,137.497 L304.777,137.321 z M212.001,167.389 L213.214,169.568 L216.475,175.427 L220.904,183.373 L203.097,183.373 L204.264,181.278 L207.526,175.427 L212.001,167.389 z M212.001,173.125 L209.952,176.805 L207.857,180.562 L216.144,180.562 L214.049,176.805 L212.001,173.125 z"/>
    </clipPath>
    <clipPath id="Clip_23">
      <path d="M284.606,252.323 C285.794,252.323 286.388,252.995 286.388,254.341 L286.388,255.005 L285.802,255.005 L285.802,254.286 C285.802,253.806 285.707,253.456 285.516,253.235 C285.324,253.014 285.013,252.903 284.582,252.903 L282.543,252.903 C282.12,252.903 281.811,253.014 281.616,253.235 C281.42,253.456 281.323,253.806 281.323,254.286 L281.323,255.06 C281.323,255.447 281.396,255.735 281.542,255.924 C281.689,256.113 281.957,256.263 282.348,256.373 L284.887,257.092 C285.457,257.258 285.867,257.475 286.12,257.742 C286.372,258.009 286.498,258.429 286.498,259 L286.498,259.982 C286.498,261.327 285.904,262 284.716,262 L282.482,262 C281.294,262 280.7,261.327 280.7,259.982 L280.7,259.166 L281.286,259.166 L281.286,260.037 C281.286,260.516 281.384,260.866 281.579,261.088 C281.774,261.309 282.084,261.419 282.507,261.419 L284.692,261.419 C285.115,261.419 285.424,261.309 285.619,261.088 C285.815,260.866 285.912,260.516 285.912,260.037 L285.912,259.042 C285.912,258.654 285.839,258.366 285.693,258.177 C285.546,257.989 285.277,257.839 284.887,257.728 L282.348,257.009 C281.778,256.843 281.367,256.627 281.115,256.359 C280.863,256.092 280.737,255.673 280.737,255.101 L280.737,254.341 C280.737,252.995 281.331,252.323 282.519,252.323 L284.606,252.323 z M273.091,252.323 L273.091,252.931 L268.256,252.931 L268.256,256.733 L272.377,256.733 L272.377,257.341 L268.256,257.341 L268.256,261.392 L273.091,261.392 L273.091,262 L267.655,262 L267.655,252.323 L273.091,252.323 z M257.575,252.323 C258.796,252.323 259.407,252.995 259.407,254.341 L259.407,255.876 C259.407,257.212 258.813,257.885 257.625,257.894 L259.683,262 L259.018,262 L256.948,257.894 L254.125,257.894 L254.125,262 L253.523,262 L253.523,252.323 L257.575,252.323 z M257.333,253.097 L253.885,253.097 L253.885,257.355 L257.333,257.355 C257.771,257.355 258.091,257.247 258.293,257.03 C258.495,256.814 258.596,256.472 258.596,256.003 L258.596,254.449 C258.596,253.98 258.495,253.638 258.293,253.421 C258.091,253.205 257.771,253.097 257.333,253.097 z M239.648,252.323 L239.648,260.009 C239.648,260.489 239.751,260.839 239.958,261.06 C240.164,261.281 240.491,261.392 240.939,261.392 L243.277,261.392 C243.724,261.392 244.051,261.281 244.258,261.06 C244.465,260.839 244.568,260.489 244.568,260.009 L244.568,252.323 L245.188,252.323 L245.188,259.982 C245.188,261.327 244.56,262 243.303,262 L240.913,262 C239.656,262 239.028,261.327 239.028,259.982 L239.028,252.323 L239.648,252.323 z M231.418,252.323 L231.418,252.931 L228.636,252.931 L228.636,262 L228.04,262 L228.04,252.931 L225.258,252.931 L225.258,252.323 L231.418,252.323 z M211.75,252.323 L216.722,260.936 L216.722,252.323 L217.286,252.323 L217.286,262 L216.71,262 L211.689,253.318 L211.689,262 L211.125,262 L211.125,252.323 L211.75,252.323 z M202.791,252.323 L202.791,252.931 L197.956,252.931 L197.956,256.733 L202.077,256.733 L202.077,257.341 L197.956,257.341 L197.956,261.392 L202.791,261.392 L202.791,262 L197.355,262 L197.355,252.323 L202.791,252.323 z M183.524,252.323 L186.303,261.254 L189.12,252.323 L189.745,252.323 L186.654,262 L185.952,262 L182.861,252.323 L183.524,252.323 z M280.667,238 L280.667,241.926 L283.777,238 L286.744,238 L283.325,242.161 L286.861,247.677 L283.854,247.677 L281.583,244.083 L280.667,245.175 L280.667,247.677 L278.164,247.677 L278.164,238 L280.667,238 z M267.228,238 C267.927,238 268.518,238.092 269.001,238.277 C269.484,238.461 269.877,238.719 270.179,239.051 C270.714,239.604 270.981,240.355 270.981,241.304 L270.981,241.332 C270.981,242.078 270.813,242.696 270.476,243.184 C270.14,243.673 269.687,244.046 269.117,244.304 L271.279,247.677 L268.38,247.677 L266.555,244.747 L265.455,244.747 L265.455,247.677 L262.944,247.677 L262.944,238 L267.228,238 z M267.068,240.323 L265.481,240.323 L265.481,242.645 L267.08,242.645 C267.497,242.645 267.817,242.542 268.042,242.334 C268.267,242.127 268.38,241.848 268.38,241.498 L268.38,241.47 C268.38,241.083 268.263,240.795 268.03,240.606 C267.797,240.417 267.476,240.323 267.068,240.323 z M251.835,238 L255.697,247.677 L253.001,247.677 L252.34,245.962 L248.842,245.962 L248.194,247.677 L245.55,247.677 L249.412,238 L251.835,238 z M250.993,241.097 L249.899,243.807 L252.073,243.807 L250.993,241.097 z M231.84,238 L233.955,241.747 L236.069,238 L238.665,238 L238.665,247.677 L236.221,247.677 L236.221,242.12 L233.955,245.908 L233.904,245.908 L231.65,242.148 L231.65,247.677 L229.244,247.677 L229.244,238 L231.84,238 z M221.996,238 L221.996,240.35 L219.27,240.35 L219.27,247.677 L216.751,247.677 L216.751,240.35 L214.024,240.35 L214.024,238 L221.996,238 z M203.123,238 L203.123,245.327 L207.502,245.327 L207.502,247.677 L200.617,247.677 L200.617,238 L203.123,238 z M189.508,238 L193.369,247.677 L190.674,247.677 L190.013,245.962 L186.514,245.962 L185.866,247.677 L183.223,247.677 L187.084,238 L189.508,238 z M188.303,241.097 L187.209,243.807 L189.383,243.807 L188.303,241.097 z"/>
    </clipPath>
    <clipPath id="Clip_24">
      <path d="M216.555,368.611 C216.938,368.611 217.249,368.922 217.249,369.306 C217.249,369.689 216.938,370 216.555,370 C216.171,370 215.86,369.689 215.86,369.306 C215.86,368.922 216.171,368.611 216.555,368.611 z"/>
    </clipPath>
    <clipPath id="Clip_25">
      <path d="M241.555,343.611 C241.938,343.611 242.249,343.922 242.249,344.306 C242.249,344.689 241.938,345 241.555,345 C241.171,345 240.86,344.689 240.86,344.306 C240.86,343.922 241.171,343.611 241.555,343.611 z"/>
    </clipPath>
    <clipPath id="Clip_26">
      <path d="M251.972,329.722 C253.085,329.722 254.132,330.156 254.919,330.943 C256.545,332.568 256.545,335.212 254.919,336.837 C254.107,337.649 253.039,338.056 251.972,338.056 C250.904,338.056 249.837,337.65 249.024,336.837 C247.399,335.212 247.399,332.568 249.024,330.943 C249.811,330.156 250.858,329.722 251.972,329.722 z M251.972,331.68 C251.381,331.681 250.826,331.91 250.409,332.328 C249.547,333.189 249.547,334.591 250.409,335.452 C251.27,336.314 252.673,336.314 253.534,335.452 C254.396,334.591 254.396,333.189 253.534,332.328 C253.117,331.91 252.562,331.681 251.972,331.68 z"/>
    </clipPath>
    <clipPath id="Clip_27">
      <path d="M224.373,357.502 C225.204,357.78 224.927,357.543 225.321,358.049 C225.565,358.538 225.365,359.132 224.876,359.376 L222.509,360.555 C221.48,361.067 220.791,362.098 220.713,363.245 L220.619,364.616 C220.603,364.848 220.719,365.001 220.789,365.071 C220.86,365.142 221.012,365.257 221.244,365.242 L222.615,365.148 C223.762,365.069 224.793,364.381 225.306,363.352 L226.485,360.984 C226.728,360.495 227.322,360.296 227.812,360.54 C228.301,360.783 228.5,361.377 228.256,361.867 L227.078,364.234 C226.253,365.889 224.595,366.996 222.75,367.122 L221.379,367.216 C221.321,367.22 221.262,367.222 221.204,367.222 C220.526,367.222 219.873,366.954 219.39,366.471 C218.865,365.946 218.594,365.221 218.644,364.481 L218.738,363.11 C218.864,361.265 219.971,359.607 221.627,358.783 L223.994,357.604 L224.373,357.502 z"/>
    </clipPath>
    <clipPath id="Clip_28">
      <path d="M263.446,320.005 C264.09,319.963 264.724,320.201 265.184,320.657 C265.644,321.113 265.89,321.746 265.858,322.395 L265.834,322.875 C265.413,331.535 261.266,339.55 254.456,344.866 L252.184,346.639 L252.184,352.041 C252.184,356.528 250.447,360.745 247.293,363.917 L241.533,369.711 C241.346,369.9 241.095,370 240.84,370 C240.722,370 240.603,369.979 240.488,369.934 C240.127,369.794 239.881,369.454 239.861,369.064 L239.232,356.749 L238.563,357.27 C238.388,357.408 238.176,357.478 237.962,357.478 C237.802,357.478 237.641,357.438 237.494,357.358 C237.204,357.199 236.918,357.033 236.635,356.862 C236.162,357.254 235.655,357.679 235.16,358.094 C234.466,358.677 233.748,359.28 233.125,359.788 C232.947,359.934 232.728,360.009 232.507,360.009 C232.364,360.009 232.221,359.978 232.087,359.914 C230.72,359.263 229.496,358.395 228.45,357.333 C227.428,356.297 226.59,355.091 225.958,353.749 C225.794,353.4 225.847,352.987 226.094,352.691 L228.986,349.239 C228.777,348.897 228.577,348.549 228.386,348.196 C228.196,347.845 228.235,347.413 228.486,347.103 L228.983,346.487 L216.791,345.857 C216.404,345.837 216.065,345.59 215.926,345.226 C215.787,344.863 215.874,344.45 216.148,344.175 L221.907,338.381 C225.061,335.209 229.254,333.462 233.714,333.462 C233.724,333.462 233.733,333.462 233.743,333.462 L239.366,333.629 L241.515,330.968 C246.687,324.564 254.348,320.589 262.533,320.063 L263.446,320.005 z M250.223,348.17 L241.12,355.275 L241.706,366.748 L245.907,362.523 C248.69,359.723 250.223,356.001 250.223,352.041 L250.223,352.041 L250.223,348.17 z M230.129,350.935 L228.012,353.463 C228.507,354.38 229.121,355.213 229.842,355.944 C230.587,356.7 231.439,357.34 232.38,357.853 C232.867,357.45 233.392,357.01 233.904,356.58 C234.245,356.294 234.591,356.003 234.929,355.721 C233.972,355.016 233.069,354.236 232.23,353.387 C232.229,353.387 232.229,353.386 232.229,353.386 C232.229,353.386 232.229,353.386 232.228,353.385 C232.228,353.385 232.227,353.384 232.226,353.384 C231.47,352.617 230.769,351.799 230.129,350.935 z M263.571,321.973 L262.658,322.032 C255.017,322.523 247.865,326.233 243.038,332.211 L230.429,347.825 C231.147,349.059 231.991,350.213 232.943,351.273 L238.122,346.064 C238.505,345.678 239.126,345.678 239.509,346.064 C239.892,346.449 239.892,347.073 239.509,347.458 L234.325,352.673 C235.413,353.676 236.601,354.561 237.876,355.31 L253.254,343.307 C259.611,338.345 263.483,330.863 263.876,322.779 L263.9,322.299 C263.905,322.178 263.845,322.099 263.808,322.062 C263.771,322.026 263.691,321.966 263.571,321.973 z M233.7,335.434 C229.769,335.438 226.074,336.98 223.294,339.776 L219.094,344.001 L230.514,344.591 L237.81,335.556 L233.7,335.434 z"/>
    </clipPath>
  </defs>
  <g id="Layer_1">
    <path d="M316.333,59.212 L319.347,59.212 Q319.941,59.212 320.474,59.328 Q321.008,59.443 321.409,59.713 Q321.811,59.982 322.047,60.439 Q322.284,60.895 322.284,61.577 Q322.284,62.402 321.855,62.98 Q321.426,63.557 320.601,63.711 L322.581,67 L320.524,67 L318.896,63.887 L318.049,63.887 L318.049,67 L316.333,67 z M318.049,62.435 L319.061,62.435 Q319.292,62.435 319.55,62.419 Q319.809,62.402 320.018,62.32 Q320.227,62.237 320.364,62.061 Q320.502,61.885 320.502,61.566 Q320.502,61.269 320.381,61.093 Q320.26,60.917 320.073,60.824 Q319.886,60.73 319.644,60.697 Q319.402,60.664 319.171,60.664 L318.049,60.664 z" fill="#FFFFFF"/>
    <path d="M325.438,59.212 L327.154,59.212 L327.154,67 L325.438,67 z" fill="#FFFFFF"/>
    <path d="M334.566,61.115 Q334.357,60.851 334,60.725 Q333.642,60.598 333.323,60.598 Q333.136,60.598 332.938,60.642 Q332.74,60.686 332.564,60.78 Q332.388,60.873 332.278,61.027 Q332.168,61.181 332.168,61.401 Q332.168,61.753 332.432,61.94 Q332.696,62.127 333.098,62.259 Q333.499,62.391 333.961,62.523 Q334.423,62.655 334.825,62.897 Q335.226,63.139 335.49,63.546 Q335.754,63.953 335.754,64.635 Q335.754,65.284 335.512,65.768 Q335.27,66.252 334.858,66.571 Q334.445,66.89 333.901,67.044 Q333.356,67.198 332.751,67.198 Q331.992,67.198 331.343,66.967 Q330.694,66.736 330.133,66.219 L331.354,64.877 Q331.618,65.229 332.02,65.422 Q332.421,65.614 332.85,65.614 Q333.059,65.614 333.274,65.565 Q333.488,65.515 333.659,65.416 Q333.829,65.317 333.934,65.163 Q334.038,65.009 334.038,64.8 Q334.038,64.448 333.769,64.245 Q333.499,64.041 333.092,63.898 Q332.685,63.755 332.212,63.612 Q331.739,63.469 331.332,63.227 Q330.925,62.985 330.656,62.589 Q330.386,62.193 330.386,61.544 Q330.386,60.917 330.634,60.444 Q330.881,59.971 331.294,59.652 Q331.706,59.333 332.245,59.174 Q332.784,59.014 333.356,59.014 Q334.016,59.014 334.632,59.201 Q335.248,59.388 335.743,59.828 z" fill="#FFFFFF"/>
    <path d="M339.096,59.212 L340.812,59.212 L340.812,62.446 L343.837,59.212 L346.081,59.212 L342.616,62.831 L346.378,67 L343.98,67 L340.812,63.304 L340.812,67 L339.096,67 z" fill="#FFFFFF"/>
    <path d="M280.787,74.212 L283.383,74.212 L285.176,79.294 L285.198,79.294 L287.002,74.212 L289.587,74.212 L289.587,82 L287.871,82 L287.871,76.027 L287.849,76.027 L285.803,82 L284.494,82 L282.525,76.027 L282.503,76.027 L282.503,82 L280.787,82 z" fill="#FFFFFF"/>
    <path d="M295.733,74.212 L297.152,74.212 L300.54,82 L298.604,82 L297.933,80.35 L294.908,80.35 L294.259,82 L292.367,82 z M296.393,76.478 L295.447,78.898 L297.35,78.898 z" fill="#FFFFFF"/>
    <path d="M303.321,74.212 L305.653,74.212 L308.964,79.624 L308.986,79.624 L308.986,74.212 L310.702,74.212 L310.702,82 L308.458,82 L305.059,76.456 L305.037,76.456 L305.037,82 L303.321,82 z" fill="#FFFFFF"/>
    <path d="M316.849,74.212 L318.268,74.212 L321.656,82 L319.72,82 L319.049,80.35 L316.024,80.35 L315.375,82 L313.483,82 z M317.509,76.478 L316.563,78.898 L318.466,78.898 z" fill="#FFFFFF"/>
    <path d="M331.488,81.45 Q330.729,81.846 329.904,82.022 Q329.079,82.198 328.221,82.198 Q327.308,82.198 326.538,81.912 Q325.768,81.626 325.207,81.093 Q324.646,80.559 324.332,79.8 Q324.019,79.041 324.019,78.106 Q324.019,77.171 324.332,76.412 Q324.646,75.653 325.207,75.12 Q325.768,74.586 326.538,74.3 Q327.308,74.014 328.221,74.014 Q329.156,74.014 329.942,74.24 Q330.729,74.465 331.323,75.015 L330.113,76.335 Q329.761,75.972 329.321,75.785 Q328.881,75.598 328.221,75.598 Q327.671,75.598 327.225,75.785 Q326.78,75.972 326.461,76.308 Q326.142,76.643 325.971,77.105 Q325.801,77.567 325.801,78.106 Q325.801,78.656 325.971,79.113 Q326.142,79.569 326.461,79.905 Q326.78,80.24 327.225,80.427 Q327.671,80.614 328.221,80.614 Q328.782,80.614 329.189,80.488 Q329.596,80.361 329.838,80.229 L329.838,78.964 L328.441,78.964 L328.441,77.38 L331.488,77.38 z" fill="#FFFFFF"/>
    <path d="M335.061,74.212 L340.352,74.212 L340.352,75.796 L336.777,75.796 L336.777,77.248 L340.154,77.248 L340.154,78.832 L336.777,78.832 L336.777,80.416 L340.55,80.416 L340.55,82 L335.061,82 z" fill="#FFFFFF"/>
    <path d="M343.924,74.212 L346.52,74.212 L348.313,79.294 L348.335,79.294 L350.139,74.212 L352.724,74.212 L352.724,82 L351.008,82 L351.008,76.027 L350.986,76.027 L348.94,82 L347.631,82 L345.662,76.027 L345.64,76.027 L345.64,82 L343.924,82 z" fill="#FFFFFF"/>
    <path d="M356.374,74.212 L361.665,74.212 L361.665,75.796 L358.09,75.796 L358.09,77.248 L361.467,77.248 L361.467,78.832 L358.09,78.832 L358.09,80.416 L361.863,80.416 L361.863,82 L356.374,82 z" fill="#FFFFFF"/>
    <path d="M365.238,74.212 L367.57,74.212 L370.881,79.624 L370.903,79.624 L370.903,74.212 L372.619,74.212 L372.619,82 L370.375,82 L366.976,76.456 L366.954,76.456 L366.954,82 L365.238,82 z" fill="#FFFFFF"/>
    <path d="M377.71,75.73 L375.488,75.73 L375.488,74.212 L381.648,74.212 L381.648,75.73 L379.426,75.73 L379.426,82 L377.71,82 z" fill="#FFFFFF"/>
    <g clip-path="url(#Clip_1)">
      <path d="M301.861,54.966 L361.827,54.966 L361.827,-5 L301.861,-5 z" fill="#FFFFFF"/>
    </g>
    <g clip-path="url(#Clip_2)">
      <path d="M306.205,50.621 L357.482,50.621 L357.482,-0.655 L306.205,-0.655 z" fill="#FFFFFF"/>
    </g>
    <g clip-path="url(#Clip_3)">
      <path d="M324.671,32.155 L339.016,32.155 L339.016,17.811 L324.671,17.811 z" fill="#FFFFFF"/>
    </g>
    <g clip-path="url(#Clip_4)">
      <path d="M314.894,41.932 L348.791,41.932 L348.791,8.035 L314.894,8.035 z" fill="#FFFFFF"/>
    </g>
    <path d="M2.299,221.73 L0.077,221.73 L0.077,220.212 L6.237,220.212 L6.237,221.73 L4.015,221.73 L4.015,228 L2.299,228 z" fill="#FFFFFF"/>
    <path d="M9.106,220.212 L12.12,220.212 Q12.714,220.212 13.247,220.328 Q13.781,220.443 14.182,220.713 Q14.584,220.982 14.82,221.439 Q15.057,221.895 15.057,222.577 Q15.057,223.402 14.628,223.98 Q14.199,224.557 13.374,224.711 L15.354,228 L13.297,228 L11.669,224.887 L10.822,224.887 L10.822,228 L9.106,228 z M10.822,223.435 L11.834,223.435 Q12.065,223.435 12.323,223.419 Q12.582,223.402 12.791,223.32 Q13,223.237 13.137,223.061 Q13.275,222.885 13.275,222.566 Q13.275,222.269 13.154,222.093 Q13.033,221.917 12.846,221.824 Q12.659,221.73 12.417,221.697 Q12.175,221.664 11.944,221.664 L10.822,221.664 z" fill="#FFFFFF"/>
    <path d="M20.797,220.212 L22.216,220.212 L25.604,228 L23.668,228 L22.997,226.35 L19.972,226.35 L19.323,228 L17.431,228 z M21.457,222.478 L20.511,224.898 L22.414,224.898 z" fill="#FFFFFF"/>
    <path d="M28.384,220.212 L30.958,220.212 Q31.893,220.212 32.735,220.421 Q33.576,220.63 34.203,221.098 Q34.83,221.565 35.199,222.313 Q35.567,223.061 35.567,224.128 Q35.567,225.074 35.21,225.795 Q34.852,226.515 34.247,227.005 Q33.642,227.494 32.85,227.747 Q32.058,228 31.189,228 L28.384,228 z M30.1,226.416 L30.991,226.416 Q31.585,226.416 32.097,226.295 Q32.608,226.174 32.982,225.894 Q33.356,225.613 33.571,225.157 Q33.785,224.7 33.785,224.04 Q33.785,223.468 33.571,223.045 Q33.356,222.621 32.993,222.346 Q32.63,222.071 32.141,221.934 Q31.651,221.796 31.112,221.796 L30.1,221.796 z" fill="#FFFFFF"/>
    <path d="M38.711,220.212 L40.427,220.212 L40.427,228 L38.711,228 z" fill="#FFFFFF"/>
    <path d="M43.989,220.212 L46.321,220.212 L49.632,225.624 L49.654,225.624 L49.654,220.212 L51.37,220.212 L51.37,228 L49.126,228 L45.727,222.456 L45.705,222.456 L45.705,228 L43.989,228 z" fill="#FFFFFF"/>
    <path d="M62.005,227.45 Q61.246,227.846 60.421,228.022 Q59.596,228.198 58.738,228.198 Q57.825,228.198 57.055,227.912 Q56.285,227.626 55.724,227.093 Q55.163,226.559 54.849,225.8 Q54.536,225.041 54.536,224.106 Q54.536,223.171 54.849,222.412 Q55.163,221.653 55.724,221.12 Q56.285,220.586 57.055,220.3 Q57.825,220.014 58.738,220.014 Q59.673,220.014 60.459,220.24 Q61.246,220.465 61.84,221.015 L60.63,222.335 Q60.278,221.972 59.838,221.785 Q59.398,221.598 58.738,221.598 Q58.188,221.598 57.742,221.785 Q57.297,221.972 56.978,222.308 Q56.659,222.643 56.488,223.105 Q56.318,223.567 56.318,224.106 Q56.318,224.656 56.488,225.113 Q56.659,225.569 56.978,225.905 Q57.297,226.24 57.742,226.427 Q58.188,226.614 58.738,226.614 Q59.299,226.614 59.706,226.488 Q60.113,226.361 60.355,226.229 L60.355,224.964 L58.958,224.964 L58.958,223.38 L62.005,223.38 z" fill="#FFFFFF"/>
    <path d="M207.799,386.115 Q207.59,385.851 207.233,385.725 Q206.876,385.598 206.557,385.598 Q206.37,385.598 206.172,385.642 Q205.973,385.686 205.798,385.78 Q205.622,385.873 205.512,386.027 Q205.402,386.181 205.402,386.401 Q205.402,386.753 205.665,386.94 Q205.93,387.127 206.331,387.259 Q206.732,387.391 207.195,387.523 Q207.657,387.655 208.058,387.897 Q208.46,388.139 208.723,388.546 Q208.988,388.953 208.988,389.635 Q208.988,390.284 208.745,390.768 Q208.504,391.252 208.091,391.571 Q207.678,391.89 207.134,392.044 Q206.59,392.198 205.984,392.198 Q205.225,392.198 204.577,391.967 Q203.928,391.736 203.367,391.219 L204.588,389.877 Q204.852,390.229 205.253,390.422 Q205.654,390.614 206.083,390.614 Q206.292,390.614 206.507,390.565 Q206.721,390.515 206.892,390.416 Q207.062,390.317 207.167,390.163 Q207.271,390.009 207.271,389.8 Q207.271,389.448 207.002,389.245 Q206.732,389.041 206.326,388.898 Q205.919,388.755 205.445,388.612 Q204.973,388.469 204.566,388.227 Q204.159,387.985 203.889,387.589 Q203.62,387.193 203.62,386.544 Q203.62,385.917 203.867,385.444 Q204.115,384.971 204.527,384.652 Q204.939,384.333 205.479,384.174 Q206.018,384.014 206.59,384.014 Q207.249,384.014 207.866,384.201 Q208.482,384.388 208.977,384.828 z" fill="#FFFFFF"/>
    <path d="M213.77,385.73 L211.548,385.73 L211.548,384.212 L217.708,384.212 L217.708,385.73 L215.486,385.73 L215.486,392 L213.77,392 z" fill="#FFFFFF"/>
    <path d="M221.116,384.212 L222.535,384.212 L225.923,392 L223.987,392 L223.316,390.35 L220.291,390.35 L219.642,392 L217.75,392 z M221.776,386.478 L220.83,388.898 L222.733,388.898 z" fill="#FFFFFF"/>
    <path d="M229.21,384.212 L232.224,384.212 Q232.818,384.212 233.351,384.328 Q233.885,384.443 234.286,384.713 Q234.688,384.982 234.924,385.439 Q235.161,385.895 235.161,386.577 Q235.161,387.402 234.732,387.98 Q234.303,388.557 233.478,388.711 L235.458,392 L233.401,392 L231.773,388.887 L230.926,388.887 L230.926,392 L229.21,392 z M230.926,387.435 L231.938,387.435 Q232.169,387.435 232.427,387.419 Q232.686,387.402 232.895,387.32 Q233.104,387.237 233.241,387.061 Q233.379,386.885 233.379,386.566 Q233.379,386.269 233.258,386.093 Q233.137,385.917 232.95,385.824 Q232.763,385.73 232.521,385.697 Q232.279,385.664 232.048,385.664 L230.926,385.664 z" fill="#FFFFFF"/>
    <path d="M239.449,385.73 L237.227,385.73 L237.227,384.212 L243.387,384.212 L243.387,385.73 L241.165,385.73 L241.165,392 L239.449,392 z" fill="#FFFFFF"/>
    <path d="M252.921,388.997 Q252.921,389.69 252.712,390.273 Q252.503,390.856 252.091,391.285 Q251.678,391.714 251.062,391.956 Q250.447,392.198 249.643,392.198 Q248.829,392.198 248.214,391.956 Q247.598,391.714 247.185,391.285 Q246.772,390.856 246.563,390.273 Q246.354,389.69 246.354,388.997 L246.354,384.212 L248.07,384.212 L248.07,388.931 Q248.07,389.294 248.186,389.602 Q248.301,389.91 248.51,390.136 Q248.719,390.361 249.011,390.488 Q249.303,390.614 249.643,390.614 Q249.984,390.614 250.27,390.488 Q250.557,390.361 250.766,390.136 Q250.975,389.91 251.09,389.602 Q251.206,389.294 251.206,388.931 L251.206,384.212 L252.921,384.212 z" fill="#FFFFFF"/>
    <path d="M256.505,384.212 L259.398,384.212 Q260.003,384.212 260.542,384.322 Q261.081,384.432 261.483,384.702 Q261.884,384.971 262.121,385.428 Q262.357,385.884 262.357,386.577 Q262.357,387.259 262.137,387.721 Q261.917,388.183 261.532,388.458 Q261.147,388.733 260.619,388.849 Q260.091,388.964 259.475,388.964 L258.221,388.964 L258.221,392 L256.505,392 z M258.221,387.512 L259.365,387.512 Q259.596,387.512 259.811,387.468 Q260.025,387.424 260.196,387.32 Q260.366,387.215 260.471,387.034 Q260.575,386.852 260.575,386.577 Q260.575,386.28 260.438,386.099 Q260.3,385.917 260.086,385.818 Q259.871,385.719 259.607,385.692 Q259.343,385.664 259.101,385.664 L258.221,385.664 z" fill="#FFFFFF"/>
    <path d="M269.285,386.115 Q269.076,385.851 268.719,385.725 Q268.361,385.598 268.042,385.598 Q267.855,385.598 267.657,385.642 Q267.459,385.686 267.283,385.78 Q267.107,385.873 266.997,386.027 Q266.887,386.181 266.887,386.401 Q266.887,386.753 267.151,386.94 Q267.415,387.127 267.817,387.259 Q268.218,387.391 268.68,387.523 Q269.142,387.655 269.544,387.897 Q269.945,388.139 270.209,388.546 Q270.473,388.953 270.473,389.635 Q270.473,390.284 270.231,390.768 Q269.989,391.252 269.577,391.571 Q269.164,391.89 268.62,392.044 Q268.075,392.198 267.47,392.198 Q266.711,392.198 266.062,391.967 Q265.413,391.736 264.852,391.219 L266.073,389.877 Q266.337,390.229 266.739,390.422 Q267.14,390.614 267.569,390.614 Q267.778,390.614 267.993,390.565 Q268.207,390.515 268.378,390.416 Q268.548,390.317 268.653,390.163 Q268.757,390.009 268.757,389.8 Q268.757,389.448 268.488,389.245 Q268.218,389.041 267.811,388.898 Q267.404,388.755 266.931,388.612 Q266.458,388.469 266.051,388.227 Q265.644,387.985 265.375,387.589 Q265.105,387.193 265.105,386.544 Q265.105,385.917 265.353,385.444 Q265.6,384.971 266.013,384.652 Q266.425,384.333 266.964,384.174 Q267.503,384.014 268.075,384.014 Q268.735,384.014 269.351,384.201 Q269.967,384.388 270.462,384.828 z" fill="#FFFFFF"/>
    <g clip-path="url(#Clip_5)">
      <path d="M123.942,57 L174.779,57 L174.779,-3 L123.942,-3 z" fill="#FFFFFF"/>
    </g>
    <g clip-path="url(#Clip_6)">
      <path d="M134.099,45.281 L147.027,45.281 L147.027,32.352 L134.099,32.352 z" fill="#FFFFFF"/>
    </g>
    <g clip-path="url(#Clip_7)">
      <path d="M151.67,48.211 L164.599,48.211 L164.599,35.281 L151.67,35.281 z" fill="#FFFFFF"/>
    </g>
    <g clip-path="url(#Clip_8)">
      <path d="M142.885,51.141 L155.813,51.141 L155.813,38.211 L142.885,38.211 z" fill="#FFFFFF"/>
    </g>
    <path d="M31.361,134.5 L31.361,28.5 L93.36,28.5" fill-opacity="0" stroke="#FFFFFF" stroke-width="5"/>
    <g clip-path="url(#Clip_9)">
      <path d="M88.36,39.5 L110.36,39.5 L110.36,16.5 L88.36,16.5 z" fill="#FFFFFF"/>
    </g>
    <path d="M443.361,114.5 L443.361,26.5 L381.361,26.5" fill-opacity="0" stroke="#FFFFFF" stroke-width="5"/>
    <g clip-path="url(#Clip_10)">
      <path d="M431.861,131 L454.861,131 L454.861,109 L431.861,109 z" fill="#FFFFFF"/>
    </g>
    <path d="M442.361,266.5 L442.361,372.5 L315.361,372.495" fill-opacity="0" stroke="#FFFFFF" stroke-width="5"/>
    <g clip-path="url(#Clip_11)">
      <path d="M298.361,382.5 L320.361,382.5 L320.361,359.5 L298.361,359.5 z" fill="#FFFFFF"/>
    </g>
    <path d="M28.361,266.5 L28.361,372.5 L169.361,372.495" fill-opacity="0" stroke="#FFFFFF" stroke-width="5"/>
    <g clip-path="url(#Clip_12)">
      <path d="M15.86,277 L38.86,277 L38.86,255 L15.86,255 z" fill="#FFFFFF"/>
    </g>
    <g clip-path="url(#Clip_13)">
      <path d="M271.361,39.5 L293.361,39.5 L293.361,16.5 L271.361,16.5 z" fill="#FFFFFF"/>
    </g>
    <path d="M277.361,28.5 L201.361,28.5" fill-opacity="0" stroke="#FFFFFF" stroke-width="5"/>
    <g clip-path="url(#Clip_14)">
      <path d="M24.364,194.179 L49.207,194.179 L49.207,169.153 L24.364,169.153 z" fill="#FFFFFF"/>
    </g>
    <g clip-path="url(#Clip_15)">
      <path d="M12.86,186.352 L36.034,186.352 L36.034,154 L12.86,154 z" fill="#FFFFFF"/>
    </g>
    <g clip-path="url(#Clip_16)">
      <path d="M25.948,186.352 L49.121,186.352 L49.121,154 L25.948,154 z" fill="#FFFFFF"/>
    </g>
    <g clip-path="url(#Clip_17)">
      <path d="M25.948,212.269 L49.121,212.269 L49.121,179.917 L25.948,179.917 z" fill="#FFFFFF"/>
    </g>
    <g clip-path="url(#Clip_18)">
      <path d="M12.86,212.269 L36.034,212.269 L36.034,179.917 L12.86,179.917 z" fill="#FFFFFF"/>
    </g>
    <g clip-path="url(#Clip_19)">
      <path d="M12.861,194.267 L36.265,194.267 L36.265,169.474 L12.861,169.474 z" fill="#FFFFFF"/>
    </g>
    <g clip-path="url(#Clip_20)">
      <path d="M415.861,213 L475.861,213 L475.861,153 L415.861,153 z" fill="#FFFFFF"/>
    </g>
    <g clip-path="url(#Clip_21)">
      <path d="M433.785,196.019 L458.879,196.019 L458.879,170.925 L433.785,170.925 z" fill="#FFFFFF"/>
    </g>
    <path d="M421.961,226.212 L424.556,226.212 L426.349,231.294 L426.371,231.294 L428.176,226.212 L430.76,226.212 L430.76,234 L429.044,234 L429.044,228.027 L429.022,228.027 L426.977,234 L425.667,234 L423.698,228.027 L423.676,228.027 L423.676,234 L421.961,234 z" fill="#FFFFFF"/>
    <path d="M434.322,226.212 L436.038,226.212 L436.038,234 L434.322,234 z" fill="#FFFFFF"/>
    <path d="M439.6,226.212 L441.932,226.212 L445.243,231.624 L445.265,231.624 L445.265,226.212 L446.981,226.212 L446.981,234 L444.737,234 L441.338,228.456 L441.316,228.456 L441.316,234 L439.6,234 z" fill="#FFFFFF"/>
    <path d="M450.543,226.212 L452.259,226.212 L452.259,234 L450.543,234 z" fill="#FFFFFF"/>
    <path d="M455.821,226.212 L458.153,226.212 L461.464,231.624 L461.486,231.624 L461.486,226.212 L463.202,226.212 L463.202,234 L460.958,234 L457.559,228.456 L457.537,228.456 L457.537,234 L455.821,234 z" fill="#FFFFFF"/>
    <path d="M473.837,233.45 Q473.078,233.846 472.253,234.022 Q471.428,234.198 470.57,234.198 Q469.656,234.198 468.887,233.912 Q468.117,233.626 467.556,233.093 Q466.995,232.559 466.681,231.8 Q466.368,231.041 466.368,230.106 Q466.368,229.171 466.681,228.412 Q466.995,227.653 467.556,227.12 Q468.117,226.586 468.887,226.3 Q469.656,226.014 470.57,226.014 Q471.505,226.014 472.291,226.24 Q473.078,226.465 473.672,227.015 L472.462,228.335 Q472.109,227.972 471.669,227.785 Q471.23,227.598 470.57,227.598 Q470.02,227.598 469.574,227.785 Q469.129,227.972 468.81,228.308 Q468.491,228.643 468.32,229.105 Q468.15,229.567 468.15,230.106 Q468.15,230.656 468.32,231.113 Q468.491,231.569 468.81,231.905 Q469.129,232.24 469.574,232.427 Q470.02,232.614 470.57,232.614 Q471.131,232.614 471.538,232.488 Q471.945,232.361 472.187,232.229 L472.187,230.964 L470.79,230.964 L470.79,229.38 L473.837,229.38 z" fill="#FFFFFF"/>
    <g clip-path="url(#Clip_22)">
      <path d="M167.86,231.276 L309.777,231.276 L309.777,121 L167.86,121 z" fill="#FFFFFF"/>
    </g>
    <g clip-path="url(#Clip_23)">
      <path d="M177.861,267 L291.861,267 L291.861,233 L177.861,233 z" fill="#FFFFFF"/>
    </g>
    <path d="M112.92,70.212 L115.934,70.212 Q116.528,70.212 117.062,70.328 Q117.595,70.443 117.996,70.713 Q118.398,70.982 118.634,71.439 Q118.871,71.895 118.871,72.577 Q118.871,73.402 118.442,73.98 Q118.013,74.557 117.188,74.711 L119.168,78 L117.111,78 L115.483,74.887 L114.636,74.887 L114.636,78 L112.92,78 z M114.636,73.435 L115.648,73.435 Q115.879,73.435 116.137,73.419 Q116.396,73.402 116.605,73.32 Q116.814,73.237 116.951,73.061 Q117.089,72.885 117.089,72.566 Q117.089,72.269 116.968,72.093 Q116.847,71.917 116.66,71.824 Q116.473,71.73 116.231,71.697 Q115.989,71.664 115.758,71.664 L114.636,71.664 z" fill="#FFFFFF"/>
    <path d="M122.114,70.212 L127.405,70.212 L127.405,71.796 L123.83,71.796 L123.83,73.248 L127.207,73.248 L127.207,74.832 L123.83,74.832 L123.83,76.416 L127.603,76.416 L127.603,78 L122.114,78 z" fill="#FFFFFF"/>
    <path d="M134.828,72.115 Q134.619,71.851 134.261,71.725 Q133.904,71.598 133.585,71.598 Q133.398,71.598 133.2,71.642 Q133.002,71.686 132.826,71.78 Q132.65,71.873 132.54,72.027 Q132.43,72.181 132.43,72.401 Q132.43,72.753 132.694,72.94 Q132.958,73.127 133.359,73.259 Q133.761,73.391 134.223,73.523 Q134.685,73.655 135.086,73.897 Q135.488,74.139 135.752,74.546 Q136.016,74.953 136.016,75.635 Q136.016,76.284 135.774,76.768 Q135.532,77.252 135.119,77.571 Q134.707,77.89 134.162,78.044 Q133.618,78.198 133.013,78.198 Q132.254,78.198 131.605,77.967 Q130.956,77.736 130.395,77.219 L131.616,75.877 Q131.88,76.229 132.281,76.422 Q132.683,76.614 133.112,76.614 Q133.321,76.614 133.535,76.565 Q133.75,76.515 133.92,76.416 Q134.091,76.317 134.195,76.163 Q134.3,76.009 134.3,75.8 Q134.3,75.448 134.03,75.245 Q133.761,75.041 133.354,74.898 Q132.947,74.755 132.474,74.612 Q132.001,74.469 131.594,74.227 Q131.187,73.985 130.917,73.589 Q130.648,73.193 130.648,72.544 Q130.648,71.917 130.895,71.444 Q131.143,70.971 131.555,70.652 Q131.968,70.333 132.507,70.174 Q133.046,70.014 133.618,70.014 Q134.278,70.014 134.894,70.201 Q135.51,70.388 136.005,70.828 z" fill="#FFFFFF"/>
    <path d="M139.357,70.212 L144.648,70.212 L144.648,71.796 L141.073,71.796 L141.073,73.248 L144.45,73.248 L144.45,74.832 L141.073,74.832 L141.073,76.416 L144.846,76.416 L144.846,78 L139.357,78 z" fill="#FFFFFF"/>
    <path d="M150.784,70.212 L152.203,70.212 L155.591,78 L153.655,78 L152.984,76.35 L149.959,76.35 L149.31,78 L147.418,78 z M151.444,72.478 L150.498,74.898 L152.401,74.898 z" fill="#FFFFFF"/>
    <path d="M158.372,70.212 L161.386,70.212 Q161.98,70.212 162.514,70.328 Q163.047,70.443 163.449,70.713 Q163.85,70.982 164.087,71.439 Q164.323,71.895 164.323,72.577 Q164.323,73.402 163.894,73.98 Q163.465,74.557 162.64,74.711 L164.62,78 L162.563,78 L160.935,74.887 L160.088,74.887 L160.088,78 L158.372,78 z M160.088,73.435 L161.1,73.435 Q161.331,73.435 161.589,73.419 Q161.848,73.402 162.057,73.32 Q162.266,73.237 162.404,73.061 Q162.541,72.885 162.541,72.566 Q162.541,72.269 162.42,72.093 Q162.299,71.917 162.112,71.824 Q161.925,71.73 161.683,71.697 Q161.441,71.664 161.21,71.664 L160.088,71.664 z" fill="#FFFFFF"/>
    <path d="M172.593,72.236 Q172.34,71.928 171.971,71.763 Q171.603,71.598 171.119,71.598 Q170.635,71.598 170.222,71.785 Q169.81,71.972 169.507,72.308 Q169.205,72.643 169.034,73.105 Q168.864,73.567 168.864,74.106 Q168.864,74.656 169.034,75.113 Q169.205,75.569 169.502,75.905 Q169.799,76.24 170.2,76.427 Q170.602,76.614 171.064,76.614 Q171.592,76.614 171.999,76.394 Q172.406,76.174 172.67,75.778 L174.1,76.845 Q173.605,77.538 172.846,77.868 Q172.087,78.198 171.284,78.198 Q170.371,78.198 169.601,77.912 Q168.831,77.626 168.27,77.093 Q167.709,76.559 167.395,75.8 Q167.082,75.041 167.082,74.106 Q167.082,73.171 167.395,72.412 Q167.709,71.653 168.27,71.12 Q168.831,70.586 169.601,70.3 Q170.371,70.014 171.284,70.014 Q171.614,70.014 171.971,70.075 Q172.329,70.135 172.675,70.267 Q173.022,70.399 173.341,70.619 Q173.66,70.839 173.913,71.158 z" fill="#FFFFFF"/>
    <path d="M177.035,70.212 L178.751,70.212 L178.751,73.116 L182.084,73.116 L182.084,70.212 L183.8,70.212 L183.8,78 L182.084,78 L182.084,74.634 L178.751,74.634 L178.751,78 L177.035,78 z" fill="#FFFFFF"/>
    <g clip-path="url(#Clip_24)">
      <path d="M210.86,375 L222.249,375 L222.249,363.611 L210.86,363.611 z" fill="#FFFFFF"/>
    </g>
    <g clip-path="url(#Clip_25)">
      <path d="M235.86,350 L247.249,350 L247.249,338.611 L235.86,338.611 z" fill="#FFFFFF"/>
    </g>
    <g clip-path="url(#Clip_26)">
      <path d="M242.805,343.056 L261.138,343.056 L261.138,324.722 L242.805,324.722 z" fill="#FFFFFF"/>
    </g>
    <g clip-path="url(#Clip_27)">
      <path d="M213.638,372.222 L233.361,372.222 L233.361,352.5 L213.638,352.5 z" fill="#FFFFFF"/>
    </g>
    <g clip-path="url(#Clip_28)">
      <path d="M210.861,375 L270.861,375 L270.861,315 L210.861,315 z" fill="#FFFFFF"/>
    </g>
  </g>
</svg>
